<svg width="336" height="427" viewBox="0 0 336 427" fill="none" xmlns="http://www.w3.org/2000/svg">
<g clip-path="url(#clip0_27_94)">
<rect width="336" height="427" rx="10" fill="url(#paint0_linear_27_94)"/>
<path d="M163.667 -369H432.352C443.318 -369 445.667 -368.212 451.933 -361.912L664.951 -163.464C671.217 -157.163 672 -154.801 672 -143.775V-27.2142C672 38.922 639.105 72 573.314 72H304.628C293.682 72 291.333 71.2124 285.067 64.9118L72.0295 -133.536C65.7832 -139.837 65 -142.199 65 -153.225V-269.766C65 -335.922 97.8759 -369 163.667 -369Z" fill="white" fill-opacity="0.03"/>
<path d="M172.333 -369H-96.3525C-107.318 -369 -109.667 -368.212 -115.933 -361.912L-328.951 -163.464C-335.217 -157.163 -336 -154.801 -336 -143.775V-27.2142C-336 38.922 -303.105 72 -237.314 72H31.372C42.3176 72 44.6673 71.2124 50.9331 64.9118L263.971 -133.536C270.217 -139.837 271 -142.199 271 -153.225V-269.766C271 -335.922 238.124 -369 172.333 -369Z" fill="white" fill-opacity="0.03"/>
<path d="M353.024 243H690.763C704.546 243 707.499 243.989 715.376 251.904L983.139 501.202C991.015 509.117 992 512.085 992 525.936V672.364C992 755.446 950.65 797 867.951 797H530.213C516.454 797 513.501 796.011 505.624 788.096L237.836 538.798C229.985 530.883 229 527.915 229 514.064V367.661C229 284.554 270.325 243 353.024 243Z" fill="white" fill-opacity="0.03"/>
<path d="M-17.0245 243H-354.763C-368.546 243 -371.499 243.989 -379.376 251.904L-647.139 501.202C-655.015 509.117 -656 512.085 -656 525.936V672.364C-656 755.446 -614.65 797 -531.951 797H-194.213C-180.454 797 -177.501 796.011 -169.624 788.096L98.1639 538.798C106.015 530.883 107 527.915 107 514.064V367.661C107 284.554 65.6749 243 -17.0245 243Z" fill="white" fill-opacity="0.03"/>
</g>
<defs>
<linearGradient id="paint0_linear_27_94" x1="-15.4737" y1="-21.5093" x2="371.803" y2="-5.7343" gradientUnits="userSpaceOnUse">
<stop stop-color="#4320C4"/>
<stop offset="1" stop-color="#3D11DB"/>
</linearGradient>
<clipPath id="clip0_27_94">
<rect width="336" height="427" rx="10" fill="white"/>
</clipPath>
</defs>
</svg>
